# AST/ASF file generated using VICON BodyLanguage
# -----------------------------------------------
:version 1.10
:name VICON
:units
  mass 1.0
  length 0.45
  angle deg
:documentation
   .ast/.asf automatically generated from VICON data using
   VICON BodyBuilder and BodyLanguage model FoxedUp or BRILLIANT.MOD
:root
   order TX TY TZ RX RY RZ
   axis XYZ
   position 0 0 0  
   orientation 0 0 0 
:bonedata
  begin
     id 1 
     name lhipjoint
     direction 0.702568 -0.596508 0.388042 
     length 2.56661 
     axis 0 0 0  XYZ
  end
  begin
     id 2 
     name lfemur
     direction 0.34202 -0.939693 0  
     length 6.58374  
     axis 0 0 20  XYZ
    dof rx ry rz
    limits (-160.0 20.0)
           (-70.0 70.0)
           (-60.0 70.0)
  end
  begin
     id 3 
     name ltibia
     direction 0.34202 -0.939693 0   
     length 6.62538   
     axis 0 0 20   XYZ
    dof rx
    limits (-10.0 170.0)
  end
  begin
     id 4 
     name lfoot
     direction 0.10455 -0.287249 0.952133   
     length 2.26699   
     axis -90 7.62852e-016 20   XYZ
    dof rx rz
    limits (-45.0 90.0)
           (-70.0 20.0)
  end
  begin
     id 5 
     name ltoes
     direction 1.53572e-011 -4.22322e-011 1   
     length 1.12949   
     axis -90 7.62852e-016 20   XYZ
    dof rx
    limits (-90.0 20.0)
  end
  begin
     id 6 
     name rhipjoint
     direction -0.728055 -0.574632 0.373811   
     length 2.66432  
     axis 0 0 0  XYZ 
  end
  begin
     id 7 
     name rfemur
     direction -0.34202 -0.939693 0   
     length 6.66732   
     axis 0 0 -20   XYZ
    dof rx ry rz
    limits (-160.0 20.0)
           (-70.0 70.0)
           (-70.0 60.0)
  end
  begin
     id 8 
     name rtibia
     direction -0.34202 -0.939693 0   
     length 6.59288   
     axis 0 0 -20   XYZ
    dof rx
    limits (-10.0 170.0)
 end
 begin
     id 9 
     name rfoot
     direction -0.119193 -0.327479 0.93731   
     length 2.38061  
     axis -90 -7.62852e-016 -20   XYZ
    dof rx rz
    limits (-45.0 90.0)
           (-20.0 70.0)
  end
  begin
     id 10 
     name rtoes
     direction -1.53547e-011 -4.21827e-011 1   
     length 1.17899   
     axis -90 -7.62852e-016 -20   XYZ
    dof rx
    limits (-90.0 20.0)
  end
  begin
     id 11 
     name lowerback
     direction -0.000416114 0.999912 -0.0132284   
     length 2.12109   
     axis 0 0 0   XYZ
    dof rx ry rz
    limits (-20.0 45.0)
           (-30.0 30.0)
           (-30.0 30.0)
  end
  begin
     id 12 
     name upperback
     direction -0.00136371 0.99809 0.0617608   
     length 2.10067   
     axis 0 0 0   XYZ
    dof rx ry rz
    limits (-20.0 45.0)
           (-30.0 30.0)
           (-30.0 30.0)
  end
  begin
     id 13 
     name thorax
     direction -3.43026e-005 0.997776 0.0666515   
     length 2.10618   
     axis 0 0 0   XYZ
    dof rx ry rz
    limits (-20.0 45.0)
           (-30.0 30.0)
           (-30.0 30.0)
  end
  begin
     id 14 
     name lowerneck
     direction 0.0398646 0.998418 0.0396592   
     length 1.83817   
     axis 0 0 0   XYZ
    dof rx ry rz
    limits (-20.0 45.0)
           (-30.0 30.0)
           (-30.0 30.0)
  end
  begin
     id 15 
     name upperneck
     direction -0.0367268 0.961527 -0.272244   
     length 1.81975   
     axis 0 0 0   XYZ
    dof rx ry rz
    limits (-20.0 45.0)
           (-30.0 30.0)
           (-30.0 30.0)
  end
  begin
     id 16
     name head
     direction -0.0182665 0.99536 -0.0944669  
     length 1.86026  
     axis 0 0 0   XYZ
    dof rx ry rz
    limits (-20.0 45.0)
           (-30.0 30.0)
           (-30.0 30.0)
  end
  begin
     id 17 
     name lclavicle
     direction 0.924239 0.361045 0.124212  
     length 3.26878  
     axis 0 0 0   XYZ
    dof ry rz
    limits (-20.0 10.0)
           (0.0 20.0)
  end
  begin
     id 18 
     name lhumerus
     direction 1 -4.48968e-011 -2.56583e-027   
     length 4.58538   
     axis 180 -30 -90   XYZ
    dof rx ry rz
    limits (-60.0 90.0)
           (-90.0 90.0)
           (-90.0 90.0)
  end
  begin
     id 19
     name lradius
     direction 1 -4.4898e-011 -5.50375e-027   
     length 2.68935   
     axis 180 -30 -90   XYZ
    dof rx
    limits (-10.0 170.0)
  end
  begin
     id 20
     name lwrist
     direction 1 -4.48939e-011 -1.48955e-026   
     length 1.34468   
     axis 9.0955e-015 90 90   XYZ
    dof ry
    limits (-180.0 0.0)
 end
  begin
     id 21 
     name lhand
     direction 1 -4.48936e-011 -2.97907e-026   
     length 0.585058   
     axis 1.90115e-014 90 90   XYZ
    dof rx rz
    limits (-90.0 90.0)
           (-45.0 45.0)
  end
  begin
     id 22 
     name lfingers
     direction 1 -4.49082e-011 -5.96235e-026   
     length 0.471689   
     axis 3.80223e-014 90 90   XYZ
    dof rx
    limits (0.0 90.0)
  end
  begin
     id 23
     name lthumb
     direction 0.707107 -6.3489e-011 0.707107   
     length 0.677253   
     axis -90 45 -3.84942e-014   XYZ
    dof rx rz
    limits (-45.0 45.0)
           (-45.0 45.0)
  end
  begin
     id 24 
     name rclavicle
     direction -0.923098 0.371783 0.0983239   
     length 3.19656  
     axis 0 0 0   XYZ 
    dof ry rz
    limits (-10.0 20.0)
           (-20.0 0.0)
  end
  begin
     id 25 
     name rhumerus
     direction -1 -4.48976e-011 -2.5492e-027  
     length 4.4745   
     axis 180 30 90   XYZ
    dof rx ry rz
    limits (-90.0 60.0)
           (-90.0 90.0)
           (-90.0 90.0)
  end
  begin
     id 26 
     name rradius
     direction -1 -4.48941e-011 -4.36555e-027   
     length 2.93896   
     axis 180 30 90   XYZ
    dof rx
    limits (-10.0 170.0)
  end
  begin
     id 27 
     name rwrist
     direction -1 -4.49044e-011 -1.49032e-026   
     length 1.46948   
     axis 9.0955e-015 -90 -90   XYZ
    dof ry
    limits (-180.0 0.0)
  end
  begin
     id 28
     name rhand
     direction -1 -4.48826e-011 -2.97749e-026   
     length 0.405092   
     axis 1.90115e-014 -90 -90   XYZ
    dof rx rz
    limits (-90.0 90.0)
           (-45.0 45.0)
  end
  begin
     id 29
     name rfingers
     direction -1 -4.49209e-011 -5.96602e-026   
     length 0.326596   
     axis 3.80223e-014 -90 -90   XYZ
    dof rx
    limits (0.0 90.0)
  end
  begin
     id 30
     name rthumb
     direction -0.707107 -6.34776e-011 0.707107   
     length 0.468928   
     axis -90 -45 3.84942e-014   XYZ
    dof rx rz
    limits (-45.0 45.0)
           (-45.0 45.0)
  end
:hierarchy
  begin
    root lhipjoint rhipjoint lowerback
    lhipjoint lfemur
    lfemur ltibia
    ltibia lfoot
    lfoot ltoes
    rhipjoint rfemur
    rfemur rtibia
    rtibia rfoot
    rfoot rtoes
    lowerback upperback
    upperback thorax
    thorax lowerneck lclavicle rclavicle
    lowerneck upperneck
    upperneck head
    lclavicle lhumerus
    lhumerus lradius
    lradius lwrist
    lwrist lhand lthumb
    lhand lfingers
    rclavicle rhumerus
    rhumerus rradius
    rradius rwrist
    rwrist rhand rthumb
    rhand rfingers
  end

#!OML:ASF H:\Punching\Project 1\Capture day 1\Session 1\female.ASF
:FULLY-SPECIFIED
:DEGREES
365
root -0.91495 14.9378 6.79949 15.2352 -23.4535 -3.63828
lowerback -3.56037 -3.70782 -2.81072
upperback -6.36525 -5.02638 -0.648589
thorax -4.41251 -2.42865 0.90691
lowerneck 0.739653 11.2276 23.8199
upperneck 33.0426 14.926 -5.12625
head 13.5157 8.89247 -4.05292
rclavicle -3.26504e-014 -7.95139e-015
rhumerus 8.04016 33.1542 -85.8074
rradius 131.744
rwrist -35.3211
rhand -20.8141 -5.80319
rfingers 7.12502
rthumb 5.55386 -35.7104
lclavicle -3.26504e-014 -7.95139e-015
lhumerus 37.2529 -5.87647 60.9622
lradius 72.0861
lwrist 9.86253
lhand -13.2996 33.3384
lfingers 7.12502
lthumb 12.8044 62.9257
rfemur -48.138 13.2851 14.4673
rtibia 44.3539
rfoot -11.5614 5.30577
rtoes -4.64171
lfemur 21.6177 14.8959 -8.6402
ltibia -7.31528e-014
lfoot -13.536 5.04967
ltoes -25.2511
366
root -0.910534 14.9207 6.81 15.0292 -23.9427 -3.67912
lowerback -3.37612 -4.03718 -2.86882
upperback -6.35321 -5.47268 -0.584393
thorax -4.478 -2.64674 1.01665
lowerneck 0.995906 11.4105 23.8886
upperneck 33.1673 15.2758 -5.25917
head 13.6047 9.04401 -4.06962
rclavicle 3.84151e-014 0
rhumerus 8.12175 33.4672 -85.7242
rradius 131.433
rwrist -34.6637
rhand -20.7025 -6.03383
rfingers 7.12502
rthumb 5.66157 -35.9382
lclavicle 3.84151e-014 0
lhumerus 38.5784 -3.81481 61.4641
lradius 65.7194
lwrist 8.06777
lhand -13.4987 33.2008
lfingers 7.12502
lthumb 12.6125 62.8
rfemur -48.1384 13.3671 14.6358
rtibia 44.6988
rfoot -11.6033 5.56482
rtoes -4.33128
lfemur 22.1069 15.223 -8.56126
ltibia 1.59028e-014
lfoot -13.6617 4.81609
ltoes -25.2045
367
root -0.905659 14.9063 6.82012 14.8308 -24.1969 -3.67968
lowerback -3.18081 -4.36281 -2.91491
upperback -6.33538 -5.91265 -0.488436
thorax -4.53976 -2.86103 1.15453
lowerneck 1.16481 11.5669 23.853
upperneck 33.2639 15.6012 -5.45671
head 13.6869 9.16529 -4.09785
rclavicle -4.86525e-014 -1.59028e-014
rhumerus 8.31692 33.7802 -85.526
rradius 131.216
rwrist -34.1645
rhand -20.5803 -6.14696
rfingers 7.12502
rthumb 5.77952 -36.0481
lclavicle -4.86525e-014 -1.59028e-014
lhumerus 39.5795 -1.65059 62.3425
lradius 60.3987
lwrist 6.49128
lhand -13.6882 32.7472
lfingers 7.12502
lthumb 12.4298 62.3576
rfemur -48.1157 13.3535 14.7444
rtibia 45.0376
rfoot -11.656 5.70339
rtoes -4.09136
lfemur 22.4824 15.335 -8.51341
ltibia -2.54444e-014
lfoot -13.7825 4.66767
ltoes -25.2901
368
root -0.900549 14.8947 6.83004 14.6361 -24.2507 -3.62123
lowerback -2.97742 -4.66803 -2.97525
upperback -6.31226 -6.3243 -0.373294
thorax -4.59583 -3.05977 1.32172
lowerneck 1.23825 11.6894 23.728
upperneck 33.3212 15.8873 -5.71749
head 13.7575 9.25114 -4.1413
rclavicle -7.44946e-014 -3.18055e-015
rhumerus 8.61291 34.0715 -85.2157
rradius 131.101
rwrist -33.8124
rhand -20.4827 -6.1608
rfingers 7.12502
rthumb 5.87377 -36.0594
lclavicle -7.44946e-014 -3.18055e-015
lhumerus 40.2256 0.51458 63.493
lradius 56.483
lwrist 5.33242
lhand -13.8181 32.0493
lfingers 7.12502
lthumb 12.3045 61.6673
rfemur -48.0877 13.2719 14.7661
rtibia 45.3792
rfoot -11.7226 5.71583
rtoes -3.90128
lfemur 22.7479 15.2614 -8.52344
ltibia -6.36111e-015
lfoot -13.8877 4.59376
ltoes -25.4733
369
root -0.895502 14.8855 6.83954 14.4576 -24.1399 -3.50471
lowerback -2.7872 -4.939 -3.05953
upperback -6.27751 -6.6884 -0.246995
thorax -4.6278 -3.23361 1.51256
lowerneck 1.20804 11.7797 23.5233
upperneck 33.3229 16.129 -6.02768
head 13.81 9.3011 -4.19581
rclavicle -4.10987e-014 -2.8625e-014
rhumerus 8.99216 34.3234 -84.8058
rradius 131.106
rwrist -33.593
rhand -20.392 -6.17393
rfingers 7.12502
rthumb 5.96141 -36.0701
lclavicle -4.10987e-014 -2.8625e-014
lhumerus 40.5194 2.51328 64.7026
lradius 54.1603
lwrist 4.8278
lhand -13.8765 31.2668
lfingers 7.12502
lthumb 12.2482 60.8881
rfemur -48.0785 13.1585 14.6917
rtibia 45.7296
rfoot -11.8014 5.58798
rtoes -3.78607
lfemur 22.9 15.038 -8.59768
ltibia 2.8625e-014
lfoot -13.9713 4.58474
ltoes -25.7211
370
root -0.890774 14.8787 6.8491 14.3022 -23.8936 -3.33835
lowerback -2.61391 -5.1637 -3.16556
upperback -6.23997 -6.98959 -0.116815
thorax -4.64462 -3.37513 1.71797
lowerneck 1.10285 11.8265 23.2687
upperneck 33.2542 16.3113 -6.38266
head 13.8322 9.31299 -4.26792
rclavicle 1.63202e-013 4.29375e-014
rhumerus 9.41046 34.536 -84.339
rradius 131.216
rwrist -33.4762
rhand -20.3432 -6.13148
rfingers 7.12502
rthumb 6.00844 -36.0263
lclavicle 1.63202e-013 4.29375e-014
lhumerus 40.448 4.14512 65.7359
lradius 53.4569
lwrist 5.27441
lhand -13.8893 30.5894
lfingers 7.12502
lthumb 12.2359 60.2115
rfemur -48.0945 13.0406 14.5249
rtibia 46.0924
rfoot -11.8976 5.31652
rtoes -3.74382
lfemur 22.9488 14.6931 -8.73056
ltibia 1.27222e-014
lfoot -14.0267 4.62077
ltoes -25.984
371
root -0.886761 14.8742 6.85873 14.1804 -23.5247 -3.12796
lowerback -2.45455 -5.32891 -3.2844
upperback -6.21888 -7.21156 0.00901198
thorax -4.67162 -3.47626 1.92582
lowerneck 0.945892 11.8123 22.9583
upperneck 33.1244 16.4024 -6.74537
head 13.8134 9.27686 -4.34884
rclavicle 6.41081e-014 1.35174e-014
rhumerus 9.7878 34.6969 -83.8524
rradius 131.421
rwrist -33.4377
rhand -20.3475 -6.01893
rfingers 7.12502
rthumb 6.00437 -35.9139
lclavicle 6.41081e-014 1.35174e-014
lhumerus 40.0205 5.26142 66.4866
lradius 54.2258
lwrist 6.79761
lhand -13.896 30.1729
lfingers 7.12502
lthumb 12.2293 59.7953
rfemur -48.1408 12.9356 14.2683
rtibia 46.4609
rfoot -12.0119 4.89709
rtoes -3.74686
lfemur 22.892 14.2395 -8.91483
ltibia 3.18055e-015
lfoot -14.0516 4.69017
ltoes -26.246
